<?xml version="1.0" standalone="no"?>
<!DOCTYPE svg PUBLIC "-//W3C//DTD SVG 1.1//EN" "http://www.w3.org/Graphics/SVG/1.1/DTD/svg11.dtd" >
<svg xmlns="http://www.w3.org/2000/svg">
<metadata>Generated by IcoMoon</metadata>
<defs>
<font id="icomoon" horiz-adv-x="1024">
<font-face units-per-em="1024" ascent="960" descent="-64" />
<missing-glyph horiz-adv-x="1024" />
<glyph unicode="&#x20;" horiz-adv-x="512" d="" />
<glyph unicode="&#xe900;" glyph-name="minus" d="M0 509.44h1024v-106.496h-1024v106.496z" />
<glyph unicode="&#xe901;" glyph-name="plus" d="M589.824 525.824v434.176h-155.648v-434.176h-434.176v-155.648h434.176v-434.176h155.648v434.176h434.176v155.648z" />
<glyph unicode="&#xe902;" glyph-name="all" d="M942.080 427.52h-327.68c-45.056 0-81.92-36.864-81.92-81.92v-323.584c0-45.056 36.864-81.92 81.92-81.92h327.68c45.056 0 81.92 40.96 81.92 81.92v323.584c0 45.056-36.864 81.92-81.92 81.92zM958.464 26.112c0-8.192-8.192-16.384-16.384-16.384h-327.68c-8.192 0-16.384 8.192-16.384 16.384v323.584c0 8.192 8.192 16.384 16.384 16.384h327.68c8.192 0 16.384-8.192 16.384-16.384v-323.584zM409.6 427.52h-327.68c-45.056 0-81.92-36.864-81.92-81.92v-323.584c0-45.056 36.864-81.92 81.92-81.92h327.68c45.056 0 81.92 40.96 81.92 81.92v323.584c0 45.056-36.864 81.92-81.92 81.92zM425.984 26.112c0-8.192-8.192-16.384-16.384-16.384h-327.68c-8.192 0-16.384 8.192-16.384 16.384v323.584c0 8.192 8.192 16.384 16.384 16.384h327.68c8.192 0 16.384-8.192 16.384-16.384v-323.584zM409.6 960h-327.68c-45.056 0-81.92-36.864-81.92-81.92v-327.68c0-45.056 36.864-81.92 81.92-81.92h327.68c45.056 0 81.92 36.864 81.92 81.92v327.68c0 45.056-36.864 81.92-81.92 81.92zM425.984 550.4c0-8.192-8.192-16.384-16.384-16.384h-323.584c-8.192 0-16.384 8.192-16.384 16.384v327.68c0 8.192 4.096 12.288 12.288 12.288v4.096h327.68c8.192 0 16.384-8.192 16.384-16.384v-327.68zM942.080 960h-327.68c-45.056 0-81.92-36.864-81.92-81.92v-327.68c0-45.056 36.864-81.92 81.92-81.92h327.68c45.056 0 81.92 36.864 81.92 81.92v327.68c0 45.056-36.864 81.92-81.92 81.92zM958.464 550.4c0-8.192-8.192-16.384-16.384-16.384h-327.68c-8.192 0-16.384 8.192-16.384 16.384v323.584c0 8.192 8.192 16.384 16.384 16.384v4.096h327.68c8.192 0 16.384-8.192 16.384-16.384v-327.68z" />
<glyph unicode="&#xe903;" glyph-name="arrow" d="M147.456 603.648v-204.8l290.816 290.816v-753.664h147.456v757.76l290.816-294.912v204.8l-364.544 356.352z" />
<glyph unicode="&#xe904;" glyph-name="back" d="M741.376-64l67.584 67.584-456.704 444.416 456.704 442.368-67.584 69.632-526.336-512z" />
<glyph unicode="&#xe905;" glyph-name="bomb" d="M651.264 779.776v81.92h-110.592c4.096 16.384 20.48 36.864 49.152 49.152 4.096 0 69.632 12.288 94.208-40.96l57.344-102.4c12.288-16.384 45.056-40.96 81.92-40.96 12.288 0 24.576 0 36.864 8.192 4.096 0 57.344 24.576 65.536 110.592 0 12.288-8.192 24.576-20.48 28.672-12.288 0-24.576-8.192-28.672-20.48-4.096-53.248-36.864-69.632-36.864-69.632-36.864-12.288-61.44 16.384-61.44 16.384l-53.248 98.304c-32.768 61.44-110.592 65.536-147.456 57.344-53.248-20.48-77.824-61.44-86.016-94.208h-98.304v-77.824c-180.224-53.248-315.392-217.088-315.392-413.696 0-241.664 196.608-434.176 434.176-434.176s434.176 192.512 434.176 434.176c0 188.416-122.88 348.16-294.912 409.6zM425.984 5.632c-4.096-8.192-12.288-12.288-20.48-12.288-4.096 0-8.192 0-12.288 4.096-331.776 176.128-233.472 495.616-233.472 495.616 4.096 12.288 16.384 20.48 32.768 16.384 12.288-4.096 20.48-16.384 16.384-32.768-4.096-12.288-86.016-278.528 208.896-438.272 8.192-4.096 12.288-20.48 8.192-32.768z" />
<glyph unicode="&#xe906;" glyph-name="calendar" d="M966.656 837.12c0 24.576 0 40.96-4.096 61.44-12.288 40.96-24.576 49.152-28.672 49.152s-16.384 0-24.576 0c-16.384-12.288-24.576-49.152-28.672-81.92 0-4.096 4.096-12.288 12.288-12.288 4.096 0 12.288 4.096 12.288 12.288 4.096 40.96 12.288 53.248 16.384 61.44 0-4.096 4.096-12.288 12.288-24.576 4.096-16.384 4.096-36.864 4.096-53.248h-90.112c0 24.576 0 40.96-4.096 61.44-12.288 40.96-24.576 49.152-28.672 49.152s-16.384 0-24.576 0c-16.384-24.576-24.576-61.44-24.576-94.208 0-4.096 4.096-12.288 12.288-12.288 4.096 0 12.288 4.096 12.288 12.288 4.096 40.96 12.288 53.248 16.384 61.44 0-4.096 4.096-12.288 12.288-24.576 4.096-16.384 4.096-36.864 4.096-53.248h-86.016c0 24.576 0 40.96-4.096 61.44-12.288 40.96-24.576 49.152-28.672 49.152s-16.384 0-24.576 0c-24.576-16.384-28.672-53.248-28.672-90.112 0-4.096 4.096-12.288 12.288-12.288s12.288 4.096 12.288 12.288c4.096 40.96 12.288 53.248 16.384 61.44 0-4.096 4.096-12.288 12.288-24.576 0-16.384 4.096-36.864 4.096-53.248h-94.208c0 24.576 0 40.96-4.096 61.44-12.288 36.864-24.576 40.96-28.672 49.152-4.096 0-16.384 0-24.576 0-16.384-12.288-24.576-49.152-28.672-81.92 0-4.096 4.096-12.288 12.288-12.288 4.096 0 12.288 4.096 12.288 12.288 4.096 40.96 12.288 53.248 16.384 61.44 0-4.096 4.096-12.288 12.288-24.576 4.096-24.576 4.096-40.96 4.096-61.44h-90.112c0 24.576 0 40.96-4.096 61.44-12.288 36.864-24.576 40.96-28.672 49.152-4.096 0-16.384 0-24.576 0-16.384-12.288-24.576-49.152-28.672-81.92 0-4.096 4.096-12.288 12.288-12.288 4.096 0 12.288 4.096 12.288 12.288 4.096 40.96 12.288 53.248 16.384 61.44 0-4.096 4.096-12.288 12.288-24.576 4.096-24.576 4.096-40.96 4.096-61.44h-90.112c0 24.576 0 40.96-4.096 61.44-4.096 36.864-24.576 40.96-24.576 49.152-4.096 0-16.384 0-24.576 0-24.576-45.056-24.576-81.92-28.672-114.688 0-4.096 4.096-12.288 12.288-12.288 4.096 0 12.288 4.096 12.288 12.288 4.096 40.96 12.288 53.248 16.384 61.44 0-4.096 4.096-12.288 12.288-24.576 4.096-20.48 4.096-36.864 4.096-57.344h-86.016c0 24.576 0 40.96-4.096 61.44-16.384 36.864-28.672 40.96-32.768 49.152-4.096 0-16.384 0-24.576 0-16.384-20.48-24.576-57.344-28.672-90.112 0-4.096 4.096-12.288 12.288-12.288s12.288 4.096 12.288 12.288c4.096 40.96 12.288 53.248 16.384 61.44 4.096 0 12.288-12.288 12.288-24.576 4.096-20.48 4.096-36.864 4.096-57.344h-90.112c0 24.576 0 40.96-4.096 61.44-12.288 36.864-24.576 40.96-28.672 49.152-4.096 0-16.384 0-24.576 0-16.384-20.48-24.576-57.344-24.576-90.112 0-4.096 4.096-12.288 12.288-12.288s12.288 4.096 12.288 12.288c4.096 40.96 12.288 53.248 16.384 61.44 0-4.096 4.096-12.288 12.288-24.576 8.192-20.48 8.192-36.864 8.192-57.344h-118.784v-786.432c0-61.44 49.152-106.496 106.496-106.496h802.816c61.44 0 106.496 49.152 106.496 106.496v786.432h-53.248zM884.736 79.36h-745.472v12.288h745.472v-12.288zM884.736 218.624h-745.472v12.288h745.472v-12.288zM884.736 353.792h-745.472v12.288h745.472v-12.288zM884.736 484.864h-745.472v12.288h745.472v-12.288zM884.736 624.128h-745.472v12.288h745.472v-12.288z" />
<glyph unicode="&#xe907;" glyph-name="confirmationNote" d="M730.726 117.453l-46.285 45.875-28.672-28.672 58.573-58.982 0.41 0.41 16.384-15.974 155.238 155.238-29.082 28.672zM823.296 391.066v568.115h-529.203l-249.856-280.166v-686.080h571.802c40.55-34.406 92.57-55.706 149.914-55.706 127.386 0 231.014 103.629 231.014 231.014 0 107.315-73.728 197.427-173.67 222.822zM85.606 663.45l226.918 254.771h469.811v-520.192c-5.325 0.41-10.65 0.819-15.974 0.819-77.005 0-144.998-38.093-186.778-95.846h-390.349v-40.96h366.592c-12.698-28.672-20.070-60.621-20.070-94.208 0-49.971 16.384-96.256 43.418-134.349h-493.568v629.965zM766.362-22.221c-104.858 0-190.054 85.197-190.054 190.054s85.197 190.054 190.054 190.054 190.054-85.197 190.054-190.054-85.606-190.054-190.054-190.054zM189.235 647.885h465.306v-40.96h-465.306v40.96zM189.235 487.322h465.306v-40.96h-465.306v40.96z" />
<glyph unicode="&#xe908;" glyph-name="crown" d="M167.936 488.96c73.728-36.864 151.552-73.728 225.28-106.496 4.096 20.48 4.096 49.152 12.288 69.632 4.096 53.248 16.384 106.496 20.48 155.648s12.288 90.112 20.48 139.264c0 4.096 0 12.288-4.096 12.288-61.44 16.384-86.016 77.824-61.44 131.072 20.48 36.864 65.536 53.248 106.496 36.864 45.056-20.48 65.536-65.536 53.248-106.496-4.096-16.384-20.48-32.768-32.768-49.152 69.632-98.304 143.36-204.8 221.184-307.2 49.152 69.632 98.304 135.168 151.552 204.8-32.768 28.672-45.056 57.344-32.768 98.304 4.096 28.672 28.672 45.056 53.248 53.248 32.768 12.288 65.536 4.096 90.112-16.384 28.672-28.672 36.864-57.344 20.48-98.304-12.288-32.768-36.864-49.152-69.632-53.248-12.288 0-12.288-4.096-12.288-12.288 0-69.632 4.096-135.168 4.096-204.8 0-45.056 4.096-86.016 4.096-131.072 0-12.288 0-12.288-12.288-16.384-114.688-28.672-225.28-53.248-339.968-86.016-102.4-28.672-204.8-49.152-307.2-73.728-12.288 0-12.288 0-16.384 4.096-32.768 65.536-57.344 122.88-90.112 188.416-16.384 36.864-36.864 73.728-53.248 114.688 4.096 8.192 4.096 12.288-8.192 8.192-32.768-12.288-73.728-4.096-98.304 32.768s-12.288 81.92 20.48 110.592c24.576 28.672 73.728 28.672 106.496 4.096 32.768-20.48 45.056-57.344 32.768-102.4 0 8.192 0 8.192-4.096 0zM962.56 255.488c12.288-45.056 20.48-81.92 32.768-122.88-225.28-53.248-446.464-114.688-671.744-167.936-12.288 45.056-20.48 81.92-32.768 122.88 225.28 53.248 446.464 110.592 671.744 167.936z" />
<glyph unicode="&#xe909;" glyph-name="data" d="M921.6 112.128v290.816h-200.704v-290.816h-102.4v483.328h-200.704v-483.328h-98.304v684.032h-200.704v-684.032h-118.784v-61.44h1024v61.44z" />
<glyph unicode="&#xe90a;" glyph-name="dc" d="M512 112.128c-188.416 0-335.872 151.552-335.872 335.872s151.552 335.872 335.872 335.872c172.032 0 315.392-126.976 335.872-294.912h167.936c-24.576 266.24-245.76 475.136-512 475.136h-491.52v-1028.096h491.52c266.24 0 483.328 204.8 512 462.848h-167.936c-28.672-163.84-167.936-286.72-335.872-286.72zM618.496 706.048c0 4.096 0 4.096-4.096 8.192 0 0-4.096 0-8.192 0h-204.8c-4.096 4.096-12.288 0-12.288-8.192 0 0 0-4.096 0-4.096l40.96-73.728c4.096-4.096 8.192-8.192 12.288-8.192h118.784c4.096 0 8.192 4.096 12.288 8.192l40.96 73.728c4.096 0 4.096 4.096 4.096 4.096zM565.248 574.976h-118.784c-4.096 0-8.192-4.096-12.288-8.192l-65.536-110.592c-4.096-4.096-4.096-8.192 0-12.288l65.536-114.688c4.096-4.096 8.192-8.192 12.288-8.192h118.784c4.096 0 8.192 4.096 12.288 8.192l65.536 110.592c0 4.096 0 4.096 0 8.192s0 4.096 0 8.192l-69.632 110.592c0 4.096-4.096 8.192-8.192 8.192zM344.064 685.568c-4.096 0-8.192 0-8.192-4.096l-110.592-192.512c0 0 0-4.096 0-4.096 0-4.096 4.096-12.288 12.288-12.288h81.92c4.096 0 8.192 4.096 12.288 8.192l61.44 110.592c0 0 0 4.096 0 8.192s0 4.096 0 8.192l-40.96 73.728c0 0-4.096 4.096-8.192 4.096zM225.28 411.136l110.592-188.416c4.096-4.096 4.096-4.096 8.192-4.096s8.192 4.096 8.192 4.096l40.96 73.728c0 0 0 4.096 0 8.192s0 4.096 0 8.192l-65.536 110.592c0 4.096-4.096 4.096-8.192 4.096h-81.92c-8.192 0-12.288-4.096-12.288-8.192s0-4.096 0-8.192zM401.408 181.76h204.8c8.192 0 12.288 4.096 12.288 12.288 0 0 0 4.096 0 4.096l-40.96 73.728c-4.096 4.096-8.192 8.192-12.288 8.192h-118.784c-4.096 0-8.192-4.096-12.288-8.192l-40.96-73.728c0 0 0-4.096 0-4.096-4.096-4.096 4.096-12.288 8.192-12.288zM663.552 218.624c4.096 0 8.192 0 8.192 4.096l110.592 188.416c0 0 0 4.096 0 4.096 0 4.096 0 4.096-4.096 8.192 0 0-4.096 0-8.192 0h-81.92c-4.096 0-8.192-4.096-12.288-4.096l-61.44-110.592c0-4.096-4.096-8.192 0-12.288l40.96-73.728c0-4.096 4.096-4.096 8.192-4.096zM782.336 488.96l-110.592 188.416c-4.096 4.096-4.096 4.096-8.192 4.096s-8.192-4.096-8.192-4.096l-40.96-73.728c-4.096-4.096-4.096-8.192 0-12.288l65.536-110.592c4.096-4.096 8.192-8.192 12.288-8.192h81.92c4.096 0 12.288 4.096 12.288 12.288-4.096 0-4.096 4.096-4.096 4.096z" />
<glyph unicode="&#xe90b;" glyph-name="diamond" d="M693.375 826.144l104.408 124.486 9.37 9.37h-588.967l112.439-133.856zM825.893 741.814l169.997 68.267-139.21 128.502-13.386-14.724-99.054-116.455zM198.107 741.814l81.652 65.59-111.101 132.518-139.21-129.841 20.078-9.37zM406.923 528.983c-12.047 0-20.078-1.339-25.433-2.677v-157.95c4.016-1.339 12.047-1.339 18.74-1.339 49.527 0 81.652 26.771 81.652 84.329 1.339 50.865-28.11 77.637-74.959 77.637zM327.948 781.971l-96.376-76.298v-516.685l96.376-76.298h369.443l96.376 76.298v516.685l-96.376 76.298h-369.443zM665.265 368.356c16.063 0 34.803 4.016 45.511 8.031l8.031-42.834c-10.708-5.354-32.125-10.708-61.574-10.708-68.267 0-109.762 34.803-121.809 84.329-6.693-22.756-18.74-40.157-33.464-52.204-25.433-21.417-64.251-30.787-111.101-30.787-28.11 0-48.188 1.339-61.574 4.016v236.925c20.078 2.677 46.85 5.354 73.621 5.354 45.511 0 76.298-8.031 99.054-25.433 17.401-13.386 30.787-30.787 36.141-54.881 17.401 53.542 66.928 82.991 125.825 82.991 28.11 0 49.527-5.354 60.235-10.708l-13.386-44.173c-10.708 4.016-26.771 9.37-45.511 9.37-42.834 0-77.637-26.771-77.637-80.314 0-48.188 28.11-78.975 77.637-78.975zM848.648 701.658v-507.315l152.596-60.235 16.063-8.031v642.51zM693.375 68.518h-362.75l-103.069-123.148-10.708-9.37h587.629l-8.031 10.708zM825.893 152.847l-81.652-64.251 100.392-117.793 10.708-14.724 140.549 128.502-21.417 9.37zM175.352 701.658l-152.596 60.235-14.724 6.693v-641.171l167.32 66.928zM198.107 152.847l-169.997-66.928 139.21-128.502 14.724 14.724 97.715 116.455z" />
<glyph unicode="&#xe90c;" glyph-name="headShot" d="M512 337.408c-221.184 0-401.408-180.224-401.408-401.408h798.72c4.096 221.184-176.128 401.408-397.312 401.408zM872.448 632.32c-4.096 0-8.192 0-12.288 4.096l-106.496 102.4c-8.192 8.192-8.192 20.48 0 24.576s20.48 8.192 24.576 0l106.496-102.4c8.192-8.192 8.192-20.48 0-24.576 0 0-8.192-4.096-12.288-4.096zM770.048 812.544c-4.096 0-8.192 0-12.288 4.096-8.192 8.192-8.192 20.48 0 24.576l102.4 110.592c8.192 8.192 20.48 8.192 24.576 0s8.192-20.48 0-24.576l-102.4-106.496c-4.096-4.096-8.192-8.192-12.288-8.192zM696.32 820.736c-4.096 0-4.096-4.096-8.192-4.096s-8.192 0-12.288 4.096l-36.864 36.864c-36.864 20.48-81.92 32.768-126.976 32.768-151.552 0-278.528-122.88-278.528-278.528s122.88-278.528 278.528-278.528 278.528 122.88 278.528 278.528c0 86.016-36.864 159.744-94.208 208.896zM704.512 738.816l-102.4-102.4c-4.096 0-8.192-4.096-16.384-4.096-4.096 0-8.192 0-12.288 4.096-8.192 8.192-8.192 20.48 0 24.576l102.4 102.4c8.192 8.192 20.48 8.192 24.576 0 8.192-4.096 8.192-16.384 4.096-24.576zM643.072 861.696c16.384-12.288 36.864-24.576 53.248-36.864 4.096 0 4.096 0 8.192 4.096 8.192 8.192 8.192 20.48 0 24.576l-102.4 102.4c-8.192 4.096-20.48 4.096-28.672 0s-8.192-20.48 0-24.576l69.632-69.632z" />
<glyph unicode="&#xe90d;" glyph-name="help" d="M745.472 865.792c-65.536 65.536-155.648 98.304-249.856 94.208-176.128-8.192-315.392-151.552-319.488-327.68-4.096-126.976 65.536-245.76 176.128-303.104v-147.456c0-28.672 24.576-57.344 57.344-57.344h208.896c28.672 0 57.344 24.576 57.344 57.344v147.456c106.496 57.344 176.128 172.032 176.128 294.912-4.096 90.112-40.96 180.224-106.496 241.664zM630.784 370.176l-16.384-8.192v-20.48h-98.304v-57.344h98.304v-16.384h-143.36v-57.344h143.36v-28.672h-204.8v180.224l-16.384 8.192c-98.304 49.152-163.84 147.456-159.744 258.048 4.096 143.36 122.88 266.24 266.24 274.432 77.824 4.096 151.552-24.576 204.8-77.824 57.344-53.248 86.016-126.976 86.016-200.704 0-106.496-61.44-208.896-159.744-253.952zM372.736 75.264c0-77.824 61.44-139.264 139.264-139.264s139.264 61.44 139.264 139.264v28.672h-278.528v-28.672zM643.072 837.12c-20.48 0-36.864-16.384-36.864-36.864s16.384-36.864 36.864-36.864 36.864 16.384 36.864 36.864c4.096 20.48-12.288 36.864-36.864 36.864zM704.512 787.968l-32.768-49.152c4.096 0 61.44-45.056 28.672-163.84l53.248-16.384c45.056 167.936-45.056 229.376-49.152 229.376z" />
<glyph unicode="&#xe90e;" glyph-name="historicalNote" d="M843.776 960h-626.688c-61.44 0-110.592-49.152-110.592-110.592v-802.816c0-61.44 49.152-110.592 110.592-110.592h466.944l270.336 282.624v630.784c0 61.44-49.152 110.592-110.592 110.592zM684.032 34.304v143.36c0 24.576 20.48 40.96 40.96 40.96h135.168l-176.128-184.32zM884.736 284.16h-159.744c-61.44 0-110.592-49.152-110.592-110.592v-167.936h-397.312c-24.576 0-40.96 20.48-40.96 40.96v802.816c0 24.576 20.48 40.96 40.96 40.96h626.688c24.576 0 40.96-20.48 40.96-40.96v-565.248zM266.24 763.392h507.904v-65.536h-507.904v65.536zM270.336 603.648h507.904v-65.536h-507.904v65.536zM270.336 415.232h507.904v-65.536h-507.904v65.536z" />
<glyph unicode="&#xe90f;" glyph-name="hitRate" d="M913.408 771.584l98.304 98.304c16.384 16.384 16.384 40.96 0 57.344l-16.384 16.384c-16.384 16.384-40.96 16.384-57.344 0l-98.304-98.304c-12.288-12.288-12.288-32.768-4.096-49.152l-28.672-28.672c-86.016 81.92-204.8 135.168-331.776 135.168-258.048-4.096-475.136-217.088-475.136-483.328s212.992-479.232 479.232-479.232 479.232 212.992 479.232 479.232c0 122.88-49.152 237.568-122.88 323.584l28.672 24.576c16.384-12.288 36.864-12.288 49.152 4.096zM901.12 419.328c0-233.472-188.416-421.888-421.888-421.888s-421.888 188.416-421.888 421.888 192.512 421.888 421.888 421.888c114.688 0 217.088-45.056 290.816-118.784l-45.056-45.056c-65.536 61.44-151.552 98.304-245.76 98.304-196.608 0-356.352-159.744-356.352-356.352s159.744-356.352 356.352-356.352 356.352 159.744 356.352 356.352c0 90.112-36.864 176.128-94.208 237.568l45.056 40.96c73.728-73.728 114.688-172.032 114.688-278.528zM598.016 525.824c24.576-28.672 40.96-65.536 40.96-106.496 0-90.112-69.632-159.744-159.744-159.744s-159.744 69.632-159.744 159.744 69.632 159.744 159.744 159.744c40.96 0 81.92-16.384 110.592-45.056l-110.592-114.688 118.784 106.496zM630.784 574.976c-40.96 36.864-94.208 61.44-151.552 61.44-122.88 0-221.184-98.304-221.184-221.184s98.304-221.184 221.184-221.184c122.88 0 221.184 98.304 221.184 221.184 0 57.344-20.48 106.496-57.344 147.456l57.344 53.248c49.152-53.248 77.824-122.88 77.824-196.608 0-163.84-135.168-294.912-294.912-294.912-163.84 0-294.912 135.168-294.912 294.912 0 163.84 135.168 294.912 294.912 294.912 77.824 0 151.552-32.768 204.8-81.92l-57.344-57.344z" />
<glyph unicode="&#xe910;" glyph-name="kill" d="M380.928 513.536c-16.384 0-28.672 4.096-40.96 16.384l-319.488 327.68c-24.576 24.576-24.576 61.44 0 81.92 24.576 24.576 61.44 20.48 81.92 0l319.488-323.584c24.576-24.576 20.48-61.44 0-81.92-12.288-12.288-24.576-20.48-40.96-20.48zM962.56-68.096c-16.384 0-28.672 4.096-40.96 16.384l-331.776 331.776c-24.576 24.576-24.576 61.44 0 81.92 24.576 24.576 61.44 24.576 81.92 0l331.776-331.776c24.576-24.576 24.576-61.44 0-81.92-8.192-8.192-24.576-16.384-40.96-16.384zM57.344-64c-16.384 0-28.672 4.096-40.96 16.384-24.576 24.576-20.48 61.44 0 81.92l323.584 319.488c24.576 24.576 61.44 20.48 81.92 0 24.576-24.576 20.48-61.44 0-81.92l-323.584-319.488c-8.192-12.288-24.576-16.384-40.96-16.384zM634.88 505.344c-16.384 0-28.672 4.096-40.96 16.384-24.576 24.576-24.576 61.44 0 81.92l331.776 331.776c24.576 24.576 61.44 24.576 81.92 0 24.576-24.576 24.576-61.44 0-81.92l-331.776-331.776c-12.288-8.192-24.576-16.384-40.96-16.384z" />
<glyph unicode="&#xe911;" glyph-name="live" d="M700.416 472.576l-245.76 143.36c-28.672 16.384-49.152 4.096-49.152-24.576v-286.72c0-32.768 20.48-40.96 45.056-24.576l245.76 143.36c28.672 8.192 28.672 32.768 4.096 49.152zM946.176 960h-860.16c-45.056 0-81.92-36.864-81.92-81.92v-860.16c0-45.056 36.864-81.92 81.92-81.92h856.064c45.056 0 81.92 36.864 81.92 81.92v860.16c4.096 45.056-32.768 81.92-77.824 81.92zM905.216 878.080h86.016v-81.92h-86.016v81.92zM761.856 878.080h86.016v-81.92h-86.016v81.92zM610.304 878.080h86.016v-81.92h-86.016v81.92zM466.944 878.080h86.016v-81.92h-86.016v81.92zM323.584 878.080h86.016v-81.92h-86.016v81.92zM180.224 878.080h86.016v-81.92h-86.016v81.92zM36.864 878.080h86.016v-81.92h-86.016v81.92zM126.976 17.92h-90.112v81.92h86.016v-81.92zM270.336 17.92h-90.112v81.92h86.016v-81.92zM323.584 17.92v81.92h86.016v-81.92h-86.016zM561.152 17.92h-86.016v81.92h86.016v-81.92zM704.512 17.92h-86.016v81.92h86.016v-81.92zM847.872 17.92h-86.016v81.92h86.016v-81.92zM991.232 17.92h-86.016v81.92h86.016v-81.92zM999.424 161.28h-970.752v569.344h974.848v-569.344z" />
<glyph unicode="&#xe912;" glyph-name="live02" d="M933.888 841.216h-843.776c-49.152 0-90.112-40.96-90.112-90.112v-606.208c0-49.152 40.96-90.112 90.112-90.112h843.776c49.152 0 90.112 40.96 90.112 90.112v606.208c0 49.152-40.96 90.112-90.112 90.112zM647.168 423.424l-245.76-143.36c-24.576-16.384-45.056-8.192-45.056 24.576v286.72c0 32.768 20.48 40.96 49.152 24.576l245.76-143.36c24.576-16.384 24.576-40.96-4.096-49.152z" />
<glyph unicode="&#xe913;" glyph-name="lock" d="M782.336 525.824v0 155.648c0 151.552-126.976 278.528-278.528 278.528s-278.528-126.976-278.528-278.528v-155.648c-24.576 0-40.96-16.384-40.96-40.96v-507.904c0-24.576 16.384-40.96 40.96-40.96h557.056c24.576 0 40.96 16.384 40.96 40.96v507.904c0 24.576-20.48 40.96-40.96 40.96zM536.576 185.856v-147.456h-69.632v147.456c-32.768 12.288-57.344 45.056-57.344 86.016 0 49.152 40.96 94.208 94.208 94.208s94.208-40.96 94.208-94.208c-4.096-36.864-28.672-69.632-61.44-86.016zM712.704 525.824h-417.792v147.456c0 114.688 94.208 208.896 208.896 208.896s208.896-94.208 208.896-208.896v-147.456z" />
<glyph unicode="&#xe914;" glyph-name="medal" d="M491.52 960h-274.432l135.168-290.816zM741.376 529.92c4.096 8.192 8.192 12.288 8.192 20.48v73.728c0 16.384-12.288 32.768-28.672 40.96l4.096 4.096 139.264 290.816h-303.104l-135.168-282.624v-4.096h-36.864c-32.768-4.096-61.44-24.576-61.44-49.152v-69.632c0-8.192 4.096-16.384 8.192-20.48-81.92-61.44-131.072-159.744-131.072-266.24 0-184.32 147.456-331.776 331.776-331.776s331.776 147.456 331.776 331.776c4.096 106.496-49.152 204.8-126.976 262.144zM380.928 624.128c0 4.096 4.096 4.096 8.192 4.096h294.912c4.096 0 8.192-4.096 8.192-4.096v-61.44c-45.056 24.576-98.304 36.864-155.648 36.864s-110.592-12.288-155.648-36.864v61.44zM745.472 316.928l-90.112-94.208c0 0-4.096-4.096 0-8.192l24.576-126.976c0-8.192-8.192-16.384-16.384-12.288l-114.688 57.344c-4.096 0-8.192 0-12.288 0l-110.592-61.44c-8.192-4.096-20.48 4.096-16.384 12.288l20.48 126.976c0 4.096 0 8.192-4.096 12.288l-98.304 86.016c-8.192 8.192-4.096 20.48 4.096 20.48l126.976 20.48c4.096 0 8.192 4.096 8.192 8.192l53.248 114.688c4.096 8.192 16.384 8.192 20.48 0l57.344-114.688c0-4.096 4.096-4.096 8.192-8.192l126.976-16.384c16.384 0 20.48-12.288 12.288-16.384z" />
<glyph unicode="&#xe915;" glyph-name="menu" d="M4.096 189.952h1015.808v-122.88h-1015.808v122.88zM4.096 517.632h1015.808v-122.88h-1015.808v122.88zM4.096 841.216h1015.808v-122.88h-1015.808v122.88z" />
<glyph unicode="&#xe916;" glyph-name="mvp" d="M823.296-39.424l-315.392 167.936-319.488-163.84 61.44 352.256-249.856 249.856 352.256 49.152 159.744 319.488 155.648-323.584 356.352-53.248-258.048-245.76 57.344-352.256zM507.904 239.104l184.32-98.304-32.768 204.8 151.552 143.36-204.8 32.768-90.112 188.416-94.208-184.32-204.8-28.672 147.456-147.456-36.864-204.8 180.224 94.208z" />
<glyph unicode="&#xe917;" glyph-name="new" d="M913.408 689.664v139.264h-909.312v-729.088h905.216c49.152 24.576 81.92 73.728 86.016 135.168l24.576 450.56-106.496 4.096zM847.872 165.376h-782.336v602.112h782.336v-602.112zM122.88 693.76h606.208v-61.44h-606.208v61.44zM172.032 550.4h253.952v-253.952h-253.952v253.952zM507.904 558.592h188.416v-61.44h-188.416v61.44zM507.904 423.424h188.416v-61.44h-188.416v61.44z" />
<glyph unicode="&#xe918;" glyph-name="note" d="M188.416 583.168h446.464v-57.344h-446.464v57.344zM176.128 443.904h446.464v-57.344h-446.464v57.344zM176.128 263.68h446.464v-57.344h-446.464v57.344zM1019.904 824.832l-253.952 57.344c0 4.096 0 45.056 0 45.056h-475.136l-290.816-323.584v-647.168h737.28l102.4-24.576 180.224 892.928zM704.512 22.016h-647.168v561.152l258.048 282.624h385.024v-843.776h4.096zM765.952 13.824c0 86.016 0 655.36 0 811.008l188.416-40.96-155.648-774.144-32.768 4.096z" />
<glyph unicode="&#xe919;" glyph-name="onlineTime" d="M512 787.968c-204.8 0-372.736-163.84-372.736-372.736s163.84-372.736 372.736-372.736 372.736 163.84 372.736 372.736-167.936 372.736-372.736 372.736zM512 415.232l-299.008-172.032c-28.672 49.152-49.152 106.496-49.152 172.032 0 192.512 155.648 348.16 348.16 348.16v-348.16zM589.824 886.272v73.728h-155.648v-73.728c-32.768-4.096-73.728-12.288-102.4-28.672l-12.288 24.576-61.44-32.768 16.384-24.576c-139.264-81.92-237.568-237.568-237.568-409.6-4.096-266.24 208.896-479.232 475.136-479.232s479.232 217.088 479.232 479.232c0 237.568-176.128 434.176-401.408 471.040zM512-14.848c-237.568 0-430.080 192.512-430.080 430.080s192.512 430.080 430.080 430.080 430.080-192.512 430.080-430.080-192.512-430.080-430.080-430.080z" />
<glyph unicode="&#xe91a;" glyph-name="openNote" d="M294.912 595.456h471.040v-61.44h-471.040v61.44zM294.912 427.52h471.040v-61.44h-471.040v61.44zM294.912 259.584h471.040v-61.44h-471.040v61.44zM409.6 960l-307.2-339.968v-684.032h806.912v61.44c0 90.112 0 692.224 0 856.064v57.344c0 4.096 0 49.152 0 49.152h-499.712zM843.776 5.632h-679.936v589.824l274.432 299.008h405.504v-888.832z" />
<glyph unicode="&#xe91b;" glyph-name="past" d="M503.808 960c-122.88 0-233.472-45.056-319.488-114.688l-102.4 77.824-49.152-335.872 315.392 126.976-106.496 81.92c73.728 57.344 163.84 90.112 262.144 90.112 237.568 0 434.176-192.512 434.176-434.176 0-237.568-192.512-434.176-434.176-434.176-233.472 4.096-421.888 188.416-434.176 417.792l-69.632-28.672c24.576-258.048 241.664-458.752 503.808-458.752 278.528 0 507.904 225.28 507.904 507.904 0 278.528-229.376 503.808-507.904 503.808zM516.096 407.040v327.68h-61.44v-389.12h299.008v61.44z" />
<glyph unicode="&#xe91c;" glyph-name="escape" d="M548.864 693.76c-32.768 8.192-61.44 12.288-90.112 20.48-8.192 0-16.384-4.096-24.576-8.192-40.96-20.48-81.92-45.056-126.976-65.536-12.288-8.192-24.576-12.288-36.864-16.384-24.576-4.096-36.864 12.288-28.672 36.864 4.096 12.288 12.288 20.48 24.576 28.672 49.152 40.96 98.304 77.824 147.456 114.688 12.288 8.192 28.672 8.192 45.056 8.192 53.248-8.192 102.4-20.48 155.648-32.768 24.576-8.192 45.056-24.576 69.632-36.864 36.864-20.48 61.44-49.152 73.728-90.112 12.288-32.768 28.672-65.536 40.96-98.304 4.096-12.288 12.288-16.384 28.672-20.48 40.96-4.096 81.92-8.192 122.88-12.288 8.192 0 16.384-4.096 24.576-8.192s12.288-16.384 12.288-24.576c0-8.192-8.192-20.48-16.384-24.576-16.384-8.192-28.672-8.192-45.056-12.288-49.152-4.096-98.304-4.096-143.36-4.096-28.672 0-45.056 12.288-57.344 36.864-12.288 28.672-24.576 57.344-40.96 90.112-36.864-57.344-69.632-114.688-106.496-172.032 49.152-32.768 94.208-61.44 139.264-94.208 40.96-28.672 45.056-53.248 24.576-94.208-36.864-65.536-69.632-135.168-106.496-200.704-12.288-24.576-28.672-45.056-45.056-65.536-12.288-16.384-28.672-20.48-49.152-12.288s-20.48 28.672-16.384 45.056c8.192 28.672 16.384 57.344 24.576 81.92 20.48 53.248 40.96 102.4 61.44 155.648 4.096 12.288 4.096 20.48-8.192 28.672-49.152 32.768-98.304 65.536-151.552 98.304-61.44 36.864-73.728 81.92-32.768 143.36 32.768 65.536 73.728 122.88 114.688 180.224 4.096 8.192 8.192 12.288 16.384 24.576zM434.176 280.064c-20.48-28.672-36.864-57.344-61.44-86.016-8.192-12.288-28.672-20.48-45.056-20.48-77.824 4.096-151.552 8.192-229.376 16.384-12.288 0-20.48 4.096-32.768 8.192-16.384 4.096-24.576 16.384-24.576 32.768s12.288 28.672 24.576 32.768c8.192 4.096 16.384 4.096 24.576 8.192 61.44 4.096 126.976 8.192 188.416 12.288 16.384 0 24.576 4.096 32.768 16.384 12.288 20.48 28.672 36.864 40.96 53.248 28.672-20.48 53.248-49.152 81.92-73.728zM860.16 865.792c0-53.248-40.96-94.208-94.208-94.208s-94.208 45.056-94.208 94.208c0 49.152 45.056 94.208 94.208 94.208 53.248 0 94.208-45.056 94.208-94.208z" />
<glyph unicode="&#xe91d;" glyph-name="roller" d="M630.784 448c0-65.603-53.181-118.784-118.784-118.784s-118.784 53.181-118.784 118.784c0 65.603 53.181 118.784 118.784 118.784s118.784-53.181 118.784-118.784zM733.184 558.592c0 0-16.384 20.48 0 45.056 0 0 16.384 16.384 45.056 0 0 0 69.632-61.44 65.536-151.552 0 0 0-94.208-61.44-151.552 0 0-28.672-20.48-49.152 0 0 0-16.384 16.384 4.096 45.056 0 0 45.056 36.864 45.056 102.4-4.096 0-4.096 61.44-49.152 110.592zM905.216 628.224c0 0-32.768 32.768-12.288 65.536 0 0 28.672 36.864 65.536 0 0 0 77.824-94.208 65.536-237.568 0 0 0-147.456-69.632-237.568 0 0-49.152-61.44-77.824-16.384 0 0-4.096 32.768 12.288 49.152 0 0 69.632 98.304 65.536 204.8-4.096-4.096-12.288 122.88-49.152 172.032zM290.816 558.592c0 0 16.384 20.48 0 45.056 0 0-16.384 16.384-45.056 0 0 0-69.632-61.44-65.536-151.552 0 0 0-94.208 61.44-151.552 0 0 28.672-20.48 49.152 0 0 0 16.384 16.384-4.096 45.056 0 0-45.056 36.864-45.056 102.4 4.096 0 4.096 65.536 49.152 110.592zM118.784 632.32c0 0 32.768 32.768 12.288 65.536 0 0-28.672 36.864-65.536 0 0 0-77.824-94.208-65.536-237.568 0 0 0-147.456 69.632-237.568 0 0 49.152-61.44 77.824-16.384 0 0 4.096 32.768-12.288 49.152 0 0-69.632 98.304-65.536 204.8 4.096 0 12.288 122.88 49.152 172.032z" />
<glyph unicode="&#xe91e;" glyph-name="search" d="M696.32 361.984l-40.96-8.192-36.864 45.056c57.344 61.44 94.208 139.264 94.208 229.376 0 184.32-147.456 331.776-331.776 331.776s-327.68-147.456-327.68-331.776 147.456-331.776 331.776-331.776c73.728 0 139.264 24.576 192.512 61.44l32.768-40.96-16.384-36.864 278.528-344.064 102.4 81.92-278.528 344.064zM380.928 361.984c-147.456 0-266.24 118.784-266.24 266.24s118.784 266.24 266.24 266.24c147.456 0 266.24-118.784 266.24-266.24s-118.784-266.24-266.24-266.24z" />
<glyph unicode="&#xe91f;" glyph-name="signOut" d="M708.608 181.76v-151.552c0-12.288-8.192-20.48-20.48-20.48h-532.48c-12.288 0-20.48 8.192-20.48 20.48v831.488c0 12.288 8.192 20.48 20.48 20.48h532.48c12.288 0 20.48-8.192 20.48-20.48v-147.456l73.728-40.96v188.416c0 53.248-40.96 94.208-94.208 94.208h-532.48c-53.248 0-94.208-40.96-94.208-94.208v-831.488c0-53.248 40.96-94.208 94.208-94.208h532.48c53.248 0 94.208 40.96 94.208 94.208v192.512l-73.728-40.96zM999.424 443.904l-319.488 188.416v-135.168h-331.776v-106.496h331.776v-131.072z" />
<glyph unicode="&#xe920;" glyph-name="time" d="M512 960c-282.624 0-512-229.376-512-512s229.376-512 512-512c282.624 0 512 229.376 512 512s-229.376 512-512 512zM512-16.896c-256 0-464.896 208.896-464.896 464.896s208.896 464.896 464.896 464.896c256 0 464.896-208.896 464.896-464.896s-208.896-464.896-464.896-464.896zM802.816 243.2l-268.288 159.744v395.264c0 12.288-10.24 22.528-24.576 22.528s-24.576-10.24-24.576-22.528v-407.552c0-8.192 4.096-16.384 12.288-20.48l280.576-167.936c4.096-2.048 8.192-4.096 12.288-4.096 8.192 0 16.384 4.096 20.48 12.288 6.144 10.24 4.096 24.576-8.192 32.768z" />
<glyph unicode="&#xe921;" glyph-name="triangle" d="M512 865.792h462.848l-233.472-417.792-229.376-417.792-229.376 417.792-233.472 417.792z" />
<glyph unicode="&#xe922;" glyph-name="trophy" d="M1011.712 779.776h-122.88v49.152h53.248l-24.576 131.072h-811.008l-20.48-131.072h53.248v-45.056h-135.168v-241.664c0-81.92 40.96-151.552 102.4-196.608 32.768-24.576 77.824-40.96 122.88-45.056 36.864-40.96 81.92-77.824 135.168-98.304 24.576-12.288 49.152-20.48 73.728-24.576l24.576-172.032h-118.784c-16.384 0-28.672-4.096-32.768-16.384l-36.864-53.248h475.136l-32.768 45.056c-4.096 12.288-16.384 16.384-32.768 16.384h-114.688l24.576 172.032c28.672 4.096 53.248 12.288 73.728 24.576 53.248 24.576 98.304 57.344 135.168 98.304 45.056 4.096 86.016 20.48 122.88 45.056 61.44 40.96 102.4 114.688 102.4 196.608v245.76h-16.384zM966.656 734.72v-167.936c0-94.208-53.248-176.128-135.168-217.088 20.48 40.96 32.768 81.92 32.768 126.976l12.288 253.952h90.112zM147.456 734.72l12.288-253.952c0-45.056 12.288-90.112 32.768-126.976-81.92 40.96-135.168 118.784-135.168 217.088v163.84h90.112z" />
<glyph unicode="&#xe923;" glyph-name="vs" d="M360.448 222.72l638.976 614.4 24.576 122.88-122.88-20.48-614.4-643.072c-40.96 28.672-90.112 45.056-90.112 45.056l-8.192 77.824-65.536-90.112 102.4-106.496c-81.92-40.96-151.552-151.552-167.936-172.032-32.768 0-57.344-24.576-57.344-57.344 0-28.672 24.576-57.344 57.344-57.344s57.344 24.576 57.344 57.344c0 4.096 0 4.096 0 4.096 94.208 53.248 167.936 155.648 172.032 163.84l110.592-110.592 90.112 65.536-77.824 8.192c0 0-20.48 57.344-49.152 98.304zM393.216 480.768l86.016 86.016-356.352 372.736-122.88 20.48 24.576-122.88zM966.656 50.688c-16.384 20.48-86.016 131.072-167.936 172.032l102.4 102.4-65.536 90.112-8.192-77.824c0 0-49.152-16.384-90.112-45.056l-114.688 122.88-77.824-77.824 118.784-114.688 4.096-4.096c-28.672-40.96-49.152-98.304-49.152-98.304l-77.824-8.192 90.112-65.536 110.592 110.592c4.096-8.192 77.824-110.592 172.032-163.84 0 0 0 0 0-4.096 0-32.768 24.576-57.344 57.344-57.344s57.344 24.576 57.344 57.344-28.672 61.44-61.44 61.44z" />
<glyph unicode="&#xe924;" glyph-name="cup" d="M876.544 775.68l4.096 49.152h53.248l-28.672 135.168h-786.432l-24.576-135.168h57.344l4.096-49.152h-139.264v-249.856c0-126.976 102.4-233.472 229.376-233.472 53.248-65.536 126.976-114.688 212.992-126.976l20.48-167.936h-110.592c-12.288 0-20.48-4.096-28.672-12.288l-36.864-49.152h434.176l-32.768 45.056c-8.192 12.288-20.48 16.384-32.768 16.384h-114.688l20.48 167.936c86.016 16.384 159.744 61.44 208.896 126.976 122.88 8.192 221.184 110.592 221.184 233.472v249.856h-131.072zM61.44 566.784v167.936h98.304l16.384-249.856c4.096-49.152 16.384-98.304 40.96-139.264-94.208 32.768-155.648 118.784-155.648 221.184zM200.704 493.056c-12.288 28.672-16.384 352.256-16.384 352.256h-65.536l16.384 94.208h49.152l-12.288-69.632h53.248l-24.576-376.832zM737.28 308.736c0 0-69.632-65.536-159.744-77.824 0 0 126.976 86.016 172.032 180.224 0 0 69.632 143.36 69.632 237.568 4.096 0 32.768-241.664-81.92-339.968zM962.56 566.784c0-94.208-57.344-176.128-139.264-212.992 20.48 40.96 32.768 86.016 36.864 135.168v0l12.288 249.856h90.112v-172.032z" />
<glyph unicode="&#xe925;" glyph-name="x" d="M1001.472 65.024l-382.976 382.976 382.976 382.976c28.672 32.768 28.672 77.824 0 106.496s-77.824 28.672-106.496 0l-382.976-382.976-382.976 382.976c-28.672 28.672-77.824 28.672-106.496 0s-28.672-77.824 0-106.496l382.976-382.976-382.976-382.976c-28.672-28.672-28.672-77.824 0-106.496 16.384-12.288 32.768-20.48 53.248-20.48s36.864 4.096 53.248 20.48l382.976 380.928 382.976-382.976c16.384-12.288 32.768-20.48 53.248-20.48s36.864 4.096 53.248 20.48c30.72 28.672 30.72 79.872 0 108.544z" />
<glyph unicode="&#xe926;" glyph-name="refuse" d="M512 960c-282.624 0-512-229.376-512-512s229.376-512 512-512 512 229.376 512 512-229.376 512-512 512zM512-10.752c-122.88 0-233.472 49.152-315.392 126.976 32.768 28.672 61.44 65.536 90.112 102.4 24.576-24.576 53.248-45.056 90.112-57.344 32.768-16.384 81.92-24.576 139.264-28.672s167.936-4.096 327.68-4.096c-86.016-81.92-200.704-139.264-331.776-139.264zM847.872 140.8l8.192 32.768c-40.96 0-86.016-4.096-139.264-4.096-65.536 0-126.976 0-188.416 4.096-61.44 0-106.496 8.192-139.264 24.576-32.768 12.288-61.44 32.768-86.016 57.344 16.384 32.768 36.864 77.824 53.248 139.264v36.864h-114.688c40.96 49.152 77.824 102.4 118.784 159.744v36.864h-184.32v-36.864h135.168c-32.768-49.152-73.728-102.4-122.88-155.648v-40.96h131.072c-20.48-94.208-69.632-176.128-151.552-245.76-69.632 81.92-114.688 184.32-114.688 299.008 0 249.856 204.8 454.656 454.656 454.656s454.656-204.8 454.656-454.656c8.192-118.784-40.96-229.376-114.688-307.2zM479.232 263.68v212.992h319.488v282.624h-360.448v-483.328c0-8.192-4.096-16.384-16.384-20.48l16.384-36.864c53.248 12.288 114.688 28.672 176.128 49.152l-4.096 40.96c-40.96-24.576-86.016-36.864-131.072-45.056zM479.232 718.336h278.528v-77.824h-278.528v77.824zM479.232 603.648h278.528v-86.016h-278.528v86.016zM225.28 792.064l-32.768-24.576c49.152-40.96 86.016-77.824 110.592-110.592l32.768 28.672c-24.576 28.672-61.44 65.536-110.592 106.496zM806.912 452.096c-36.864-32.768-77.824-61.44-122.88-81.92l-98.304 65.536-24.576-28.672c106.496-65.536 184.32-126.976 245.76-184.32l28.672 28.672c-28.672 28.672-65.536 61.44-114.688 98.304 40.96 24.576 77.824 49.152 114.688 77.824l-28.672 24.576z" />
<glyph unicode="&#xe927;" glyph-name="standoff" d="M512 960c-282.624 0-512-229.376-512-512s229.376-512 512-512 512 229.376 512 512-229.376 512-512 512zM835.584 124.416c-86.016-86.016-200.704-135.168-323.584-135.168s-237.568 49.152-323.584 135.168c-86.016 86.016-135.168 200.704-135.168 323.584s49.152 237.568 135.168 323.584c86.016 86.016 200.704 135.168 323.584 135.168s237.568-49.152 323.584-135.168c86.016-86.016 135.168-200.704 135.168-323.584s-49.152-237.568-135.168-323.584zM532.48 361.984v323.584h299.008v40.96h-638.976v-40.96h299.008v-323.584h-315.392v-40.96h315.392v-258.048h40.96v258.048h315.392v40.96zM675.84 415.232c49.152 57.344 86.016 118.784 110.592 180.224l-36.864 16.384c-24.576-65.536-61.44-122.88-110.592-176.128l36.864-20.48zM278.528 615.936l-32.768-20.48c49.152-73.728 81.92-131.072 98.304-180.224l36.864 20.48c-20.48 57.344-53.248 118.784-102.4 180.224z" />
<glyph unicode="&#xe928;" glyph-name="lose" d="M507.904 960c-282.624 0-512-229.376-512-512s229.376-512 512-512c282.624 0 512 229.376 512 512s-229.376 512-512 512zM507.904-6.656c-249.856 0-454.656 204.8-454.656 454.656s204.8 454.656 454.656 454.656 454.656-204.8 454.656-454.656c4.096-249.856-200.704-454.656-454.656-454.656zM438.272 116.224h36.864v151.552h98.304v-98.304c0-8.192-4.096-12.288-8.192-12.288-4.096-4.096-16.384-4.096-36.864-4.096-12.288 0-20.48 0-28.672 0l12.288-40.96c8.192 0 16.384 0 24.576 0 28.672 0 49.152 4.096 57.344 12.288s12.288 24.576 12.288 40.96v364.544h-172.032v-413.696zM475.136 497.152h98.304v-73.728h-98.304v73.728zM475.136 382.464h98.304v-81.92h-98.304v81.92zM319.488 316.928v118.784h77.824v36.864h-77.824v139.264h-36.864v-139.264h-69.632c20.48 61.44 40.96 126.976 61.44 196.608h139.264v36.864h-135.168c8.192 32.768 12.288 61.44 20.48 81.92l-36.864 8.192c-8.192-40.96-16.384-69.632-20.48-90.112h-77.824v-36.864h69.632c-20.48-69.632-40.96-135.168-61.44-196.608v-36.864h110.592v-131.072c-53.248-12.288-98.304-20.48-131.072-24.576l12.288-36.864c36.864 8.192 77.824 12.288 118.784 24.576v-151.552h36.864v163.84c36.864 8.192 65.536 16.384 86.016 24.576l-4.096 36.864c-36.864-12.288-65.536-20.48-81.92-24.576zM765.952 173.568c0-12.288-8.192-16.384-20.48-16.384s-40.96-4.096-73.728 0l12.288-40.96h40.96c32.768 0 53.248 4.096 61.44 16.384 8.192 8.192 16.384 24.576 16.384 40.96v376.832h-36.864v-376.832zM643.072 767.488c4.096 4.096 8.192 8.192 8.192 12.288l-36.864 16.384c-45.056-61.44-114.688-122.88-212.992-184.32l28.672-28.672c77.824 53.248 143.36 106.496 188.416 155.648 40.96-53.248 106.496-106.496 196.608-159.744l20.48 32.768c-86.016 49.152-147.456 98.304-192.512 155.648zM512 620.032h208.896v-36.864h-208.896v36.864zM659.456 509.44h36.864v-278.528h-36.864v278.528z" />
<glyph unicode="&#xe929;" glyph-name="win" d="M512 960c-282.624 0-512-229.376-512-512s229.376-512 512-512 512 229.376 512 512-229.376 512-512 512zM512-6.656c-122.88 0-229.376 49.152-311.296 122.88v0c20.48 28.672 36.864 65.536 45.056 114.688h90.112v-61.44c0-8.192-4.096-12.288-8.192-12.288s-16.384-4.096-28.672-4.096c-12.288 0-20.48 0-28.672 4.096l8.192-36.864c12.288 0 24.576 0 32.768 0 36.864 0 57.344 16.384 57.344 49.152v274.432h-151.552v-106.496c0-81.92-16.384-143.36-45.056-188.416-73.728 81.92-118.784 188.416-118.784 307.2 0 249.856 204.8 454.656 454.656 454.656s454.656-204.8 454.656-454.656c4.096-258.048-200.704-462.848-450.56-462.848zM335.872 316.928v-53.248h-81.92c0 16.384 0 32.768 4.096 53.248h77.824zM253.952 349.696v49.152h81.92v-49.152h-81.92zM274.432 669.184c0-20.48 4.096-32.768 12.288-40.96s20.48-8.192 36.864-8.192h475.136v32.768h-471.040c-4.096 0-8.192 0-12.288 4.096s-4.096 8.192-4.096 12.288v40.96h540.672v32.768h-307.2c-12.288 24.576-20.48 40.96-28.672 53.248l-40.96-8.192c12.288-20.48 20.48-32.768 20.48-40.96h-319.488v-28.672h94.208v-49.152zM782.336 583.168h-540.672v-106.496h540.672v106.496zM741.376 505.344h-458.752v40.96h458.752v-40.96zM819.2 251.392c-4.096-49.152-4.096-73.728-8.192-81.92s-12.288-12.288-20.48-12.288c-12.288 0-16.384 4.096-16.384 8.192v266.24h-139.264v-106.496c0-86.016-16.384-147.456-49.152-192.512l28.672-24.576c32.768 49.152 53.248 106.496 57.344 176.128 12.288-16.384 28.672-40.96 45.056-73.728l20.48 20.48v-77.824c0-24.576 16.384-40.96 49.152-40.96 28.672 0 49.152 8.192 57.344 28.672s12.288 49.152 12.288 86.016l-36.864 24.576zM737.28 247.296c-12.288 20.48-24.576 45.056-49.152 73.728l-16.384-16.384v94.208h65.536v-151.552zM516.096 235.008c4.096 24.576 8.192 69.632 8.192 131.072h-32.768c0-61.44-4.096-102.4-8.192-122.88s-16.384-40.96-32.768-57.344-40.96-32.768-65.536-45.056l20.48-28.672c49.152 24.576 81.92 53.248 98.304 90.112 16.384-16.384 36.864-36.864 57.344-65.536l28.672 24.576c-8.192 4.096-32.768 28.672-73.728 73.728zM598.016 226.816v208.896h-188.416v-208.896h36.864v172.032h118.784v-172.032z" />
<glyph unicode="&#xe92a;" glyph-name="ban" d="M512 960c-282.624 0-512-229.376-512-512s229.376-512 512-512 512 229.376 512 512-229.376 512-512 512zM512 878.080c237.568 0 430.080-192.512 430.080-430.080 0-69.632-16.384-135.168-45.056-192.512l-712.704 475.136c81.92 90.112 196.608 147.456 327.68 147.456zM512 17.92c-237.568 0-430.080 192.512-430.080 430.080 0 73.728 20.48 143.36 53.248 204.8l716.8-479.232c-81.92-94.208-204.8-155.648-339.968-155.648z" />
<glyph unicode="&#xe92b;" glyph-name="xx" d="M835.584 960h-647.168c-102.4 0-188.416-86.016-188.416-188.416v-647.168c0-102.4 86.016-188.416 188.416-188.416h647.168c102.4 0 188.416 86.016 188.416 188.416v647.168c0 102.4-86.016 188.416-188.416 188.416zM827.392 206.336c20.48-20.48 20.48-53.248 0-69.632s-53.248-20.48-69.632 0l-245.76 245.76-245.76-245.76c-20.48-20.48-53.248-20.48-69.632 0-20.48 20.48-20.48 53.248 0 69.632l245.76 245.76-245.76 245.76c-20.48 16.384-20.48 49.152 0 65.536s53.248 20.48 69.632 0l245.76-245.76 245.76 245.76c20.48 20.48 53.248 20.48 69.632 0 20.48-20.48 20.48-53.248 0-69.632l-245.76-245.76 245.76-241.664z" />
<glyph unicode="&#xe92c;" glyph-name="warning" d="M999.424 128.512l-417.792 720.896c-32.768 53.248-106.496 53.248-139.264 0l-413.696-720.896c-32.768-53.248 8.192-118.784 69.632-118.784h831.488c61.44 0 98.304 65.536 69.632 118.784zM512 75.264c-32.768 0-57.344 28.672-57.344 61.44 0 36.864 24.576 61.44 57.344 61.44s57.344-28.672 57.344-61.44c0-32.768-24.576-61.44-57.344-61.44zM557.056 280.064c-4.096-24.576-20.48-40.96-40.96-40.96s-36.864 16.384-40.96 40.96c0 0-36.864 299.008-36.864 311.296 0 49.152 36.864 86.016 77.824 86.016s77.824-40.96 77.824-86.016c0-12.288-36.864-311.296-36.864-311.296z" />
<glyph unicode="&#xe92d;" glyph-name="utc" d="M294.912 308.736l-20.48 28.672-28.672-24.576c0 0-65.536 16.384-53.248-16.384s16.384-65.536 24.576-65.536 36.864-8.192 57.344 0 24.576 16.384 28.672 28.672c4.096 12.288 4.096 12.288 4.096 12.288s16.384 28.672 0 28.672c-12.288 8.192-12.288 8.192-12.288 8.192zM323.584 321.024c0 0 4.096 0 12.288 0 28.672 0 24.576-16.384 28.672 0s4.096 16.384 4.096 16.384l-28.672 16.384c0 0 0-4.096 0-20.48 0-8.192-12.288-12.288-16.384-12.288zM794.624 386.56c-122.88 0-225.28-102.4-225.28-225.28s102.4-225.28 225.28-225.28 225.28 102.4 225.28 225.28c-4.096 122.88-102.4 225.28-225.28 225.28zM901.12 103.936c0-4.096-4.096-4.096-8.192-4.096h-4.096l-98.304 40.96c0 0 0 0-4.096 4.096v147.456c0 4.096 4.096 12.288 12.288 12.288s12.288-4.096 12.288-12.288v-135.168l94.208-40.96c-4.096-4.096 0-8.192-4.096-12.288zM487.424 42.496c-237.568 0-434.176 196.608-434.176 434.176 0 20.48 0 36.864 4.096 57.344 4.096-4.096 4.096-8.192 4.096-12.288 4.096-4.096 16.384-24.576 24.576-24.576 8.192-4.096 0 0 49.152 20.48s20.48 40.96 20.48 77.824c0 32.768 16.384 53.248 36.864 81.92s24.576 32.768 32.768 40.96c12.288 8.192 20.48 36.864 20.48 36.864l-61.44 32.768c77.824 77.824 184.32 122.88 303.104 122.88 49.152 0 94.208-8.192 135.168-20.48v-86.016c0 0-53.248-73.728-106.496-90.112s-24.576 32.768-90.112-40.96c-65.536-77.824-102.4-65.536-90.112-118.784s0-86.016 32.768-143.36c36.864-57.344 36.864-110.592 122.88-139.264 12.288-4.096 28.672-8.192 49.152-8.192 40.96 94.208 131.072 163.84 241.664 167.936-8.192 36.864-16.384 49.152-16.384 65.536 4.096 24.576 0 24.576 20.48 45.056 20.48 16.384-8.192 0 28.672 24.576 36.864 28.672 45.056 32.768 45.056 32.768l28.672 36.864c20.48-49.152 32.768-106.496 32.768-159.744 0-24.576-4.096-49.152-8.192-73.728 16.384-8.192 28.672-16.384 45.056-28.672 8.192 32.768 12.288 65.536 12.288 102.4 0 266.24-217.088 483.328-483.328 483.328s-479.232-217.088-479.232-483.328 217.088-483.328 483.328-483.328c28.672 0 57.344 4.096 81.92 8.192-8.192 12.288-16.384 28.672-24.576 45.056-20.48 0-40.96-4.096-61.44-4.096z" />
<glyph unicode="&#xe92e;" glyph-name="home" d="M1024 353.792l-512 397.312-512-397.312v163.84l512 397.312 512-401.408v-159.744zM897.024 366.080v-385.024h-258.048v258.048h-253.952v-258.048h-258.048v385.024l385.024 286.72 385.024-286.72z" />
</font>
</defs>
</svg>
